<?xml version="1.0" encoding="UTF-8"?>
<!DOCTYPE svg PUBLIC "-//W3C//DTD SVG 1.1//EN" "http://www.w3.org/Graphics/SVG/1.1/DTD/svg11.dtd">
<svg xmlns="http://www.w3.org/2000/svg" version="1.1" width="800px" height="600px" style="shape-rendering:geometricPrecision; text-rendering:geometricPrecision; image-rendering:optimizeQuality; fill-rule:evenodd; clip-rule:evenodd" xmlns:xlink="http://www.w3.org/1999/xlink">
<g><path style="opacity:0.99" fill="#8b274c" d="M 383.5,25.5 C 407.551,30.8869 420.551,45.8869 422.5,70.5C 427.319,74.8181 431.985,79.3181 436.5,84C 439.98,82.7458 443.647,82.4125 447.5,83C 449.909,84.2007 451.909,85.8674 453.5,88C 449.52,88.8141 446.52,90.9808 444.5,94.5C 452.648,106.607 457.648,119.94 459.5,134.5C 475.001,138.445 483.835,148.445 486,164.5C 486.667,172.833 486.667,181.167 486,189.5C 484.207,197.249 481.707,204.749 478.5,212C 481.302,215.501 483.802,219.334 486,223.5C 487.383,228.08 488.383,232.747 489,237.5C 490.386,258.136 490.886,278.803 490.5,299.5C 499.831,297.999 508.831,299.166 517.5,303C 522.231,305.956 525.398,310.123 527,315.5C 527.73,326.677 528.563,337.844 529.5,349C 530.148,354.427 531.648,359.594 534,364.5C 535.818,336.348 545.818,311.682 564,290.5C 566.911,285.19 568.745,279.524 569.5,273.5C 577.651,278.784 583.151,286.117 586,295.5C 593.888,325.1 589.222,352.434 572,377.5C 568.777,392.268 563.11,405.934 555,418.5C 551.169,422.128 546.669,423.295 541.5,422C 519.632,412.465 504.132,396.631 495,374.5C 492.99,368.442 490.99,362.442 489,356.5C 485.129,382.636 481.962,408.803 479.5,435C 484.649,441.316 490.316,447.15 496.5,452.5C 504.291,444.208 512.291,436.041 520.5,428C 521.5,427.333 522.5,427.333 523.5,428C 549.231,452.402 574.898,476.735 600.5,501C 600.07,502.434 599.236,503.601 598,504.5C 570.92,492.708 546.753,476.542 525.5,456C 524.833,455.333 524.167,455.333 523.5,456C 519.667,459.833 515.833,463.667 512,467.5C 511.333,468.5 511.333,469.5 512,470.5C 528.236,488.646 544.236,506.979 560,525.5C 560.904,520.539 563.237,519.539 567,522.5C 570.422,533.931 574.922,544.931 580.5,555.5C 579.788,557.046 578.622,558.046 577,558.5C 564.52,552.56 551.687,547.393 538.5,543C 541.672,541.248 544.672,539.248 547.5,537C 530.686,518.353 513.353,500.186 495.5,482.5C 491.056,485.441 487.056,488.941 483.5,493C 498.878,514.255 510.712,537.422 519,562.5C 519.936,566.114 520.436,569.78 520.5,573.5C 518.712,573.785 517.045,573.452 515.5,572.5C 498.827,542.322 477.827,515.488 452.5,492C 461.573,483.716 470.739,475.549 480,467.5C 475.948,460.418 470.615,454.084 464,448.5C 454.348,451.298 445.514,449.465 437.5,443C 428.408,437.154 423.408,428.821 422.5,418C 422.844,413.967 424.178,410.3 426.5,407C 418.603,399.192 410.936,391.192 403.5,383C 396.933,384.774 390.599,387.441 384.5,391C 367.167,402.333 349.833,413.667 332.5,425C 320.549,432.571 307.549,435.904 293.5,435C 285.743,430.228 280.576,423.395 278,414.5C 275.361,405.001 273.695,395.334 273,385.5C 272.803,383.139 271.636,381.472 269.5,380.5C 263.019,385.813 256.686,391.313 250.5,397C 240.699,403.322 231.532,410.488 223,418.5C 222.529,420.246 221.862,421.913 221,423.5C 211.2,408.941 211.2,394.274 221,379.5C 233.971,360.194 250.471,344.694 270.5,333C 276.382,328.642 282.715,327.642 289.5,330C 290.667,331.167 291.833,332.333 293,333.5C 296.425,345.37 299.425,357.37 302,369.5C 303.514,374.029 305.681,378.195 308.5,382C 310.167,382.667 311.833,382.667 313.5,382C 322.74,372.094 330.406,361.094 336.5,349C 329.176,341.159 320.842,334.492 311.5,329C 287.022,319.095 263.022,308.095 239.5,296C 233.331,292.416 227.331,288.583 221.5,284.5C 220.226,287.367 219.393,290.367 219,293.5C 212.558,285.949 208.225,277.283 206,267.5C 202.034,252.737 200.034,237.737 200,222.5C 211.244,236.468 223.078,249.968 235.5,263C 238.659,266.082 242.325,268.416 246.5,270C 243.432,271.016 240.432,272.183 237.5,273.5C 247.975,282.448 259.642,289.615 272.5,295C 289.833,301 307.167,307 324.5,313C 330.621,315.56 336.621,318.394 342.5,321.5C 343.614,320.277 343.781,318.944 343,317.5C 332.766,306.689 322.766,295.689 313,284.5C 302.513,288.123 293.013,286.29 284.5,279C 270.775,265.855 263.609,249.688 263,230.5C 255.031,221.53 246.697,212.863 238,204.5C 233.215,196.212 235.381,192.379 244.5,193C 250.635,198.134 256.469,203.634 262,209.5C 262.993,185.215 267.326,161.548 275,138.5C 277.9,130.213 283.067,128.38 290.5,133C 306.968,147.8 323.135,162.967 339,178.5C 333.837,166.339 329.837,153.672 327,140.5C 325.98,133.201 325.313,125.868 325,118.5C 312.185,95.5112 312.518,72.8446 326,50.5C 329.7,46.4648 333.7,42.7981 338,39.5C 338.336,46.5335 339.002,53.5335 340,60.5C 340.814,64.2953 342.314,67.7953 344.5,71C 345.5,71.6667 346.5,71.6667 347.5,71C 357.244,64.7516 367.911,61.0849 379.5,60C 386.045,52.6882 388.212,44.1882 386,34.5C 385.261,31.4535 384.428,28.4535 383.5,25.5 Z M 300.5,196.5 C 302.783,196.608 304.783,197.441 306.5,199C 328.861,226.4 342.194,257.733 346.5,293C 346.167,293.833 345.833,294.667 345.5,295.5C 337.817,288.65 330.65,281.317 324,273.5C 329.005,257.674 324.172,245.84 309.5,238C 304.552,236.95 299.552,236.45 294.5,236.5C 295.128,225.494 295.961,214.494 297,203.5C 297.653,200.861 298.82,198.527 300.5,196.5 Z M 452.5,289.5 C 453.167,291.5 453.833,293.5 454.5,295.5C 454.5,298.5 454.5,301.5 454.5,304.5C 450.5,305.5 446.5,306.5 442.5,307.5C 443.759,300.312 447.092,294.312 452.5,289.5 Z M 450.5,363.5 C 452.167,363.5 453.833,363.5 455.5,363.5C 455.26,372.717 453.76,381.717 451,390.5C 449.48,394.019 446.814,396.019 443,396.5C 435.719,389.385 428.553,382.051 421.5,374.5C 431.178,370.611 440.845,366.944 450.5,363.5 Z"/></g>
<g><path style="opacity:1" fill="#e9b33a" d="M 450.5,139.5 C 451.167,137.5 451.833,135.5 452.5,133.5C 452.5,137.167 452.5,140.833 452.5,144.5C 465.025,142.508 473.191,147.508 477,159.5C 480.737,197.025 467.737,227.358 438,250.5C 436.248,253.672 434.248,256.672 432,259.5C 432.422,256.902 432.422,254.236 432,251.5C 429.931,256.541 427.764,261.541 425.5,266.5C 424.833,267.833 424.167,267.833 423.5,266.5C 426.413,262.262 427.58,257.595 427,252.5C 424.5,258.167 422,263.833 419.5,269.5C 418.277,270.614 416.944,270.781 415.5,270C 418.102,265.19 419.102,260.024 418.5,254.5C 389.868,256.938 369.368,245.272 357,219.5C 353.112,208.824 353.778,198.491 359,188.5C 362.8,183.688 367.634,180.521 373.5,179C 362.711,172.61 356.545,163.11 355,150.5C 350.89,133.182 355.057,118.349 367.5,106C 379.102,98.2189 391.102,97.5522 403.5,104C 405.667,106.167 407.833,108.333 410,110.5C 408.653,105.325 408.32,99.9914 409,94.5C 413.073,88.3696 418.573,86.8696 425.5,90C 427.332,90.7485 428.999,91.7485 430.5,93C 427.643,101.624 425.476,110.458 424,119.5C 422.333,120.833 420.667,120.833 419,119.5C 418.348,122.594 418.682,125.594 420,128.5C 421.264,130.607 423.097,131.607 425.5,131.5C 425.884,140.437 429.551,147.604 436.5,153C 441.625,154.569 445.459,153.069 448,148.5C 449.145,145.568 449.978,142.568 450.5,139.5 Z"/></g>
<g><path style="opacity:1" fill="#dda13d" d="M 452.5,133.5 C 451.833,135.5 451.167,137.5 450.5,139.5C 451.885,126.806 447.885,116.306 438.5,108C 439.863,100.98 442.03,100.814 445,107.5C 449.303,115.652 451.803,124.318 452.5,133.5 Z"/></g>
<g><path style="opacity:1" fill="#8f2e4d" d="M 409.5,130.5 C 410.167,129.5 410.833,128.5 411.5,127.5C 415.411,132.989 415.911,138.655 413,144.5C 412.075,145.047 411.242,145.713 410.5,146.5C 412.77,151.779 412.937,157.112 411,162.5C 408.774,166.861 405.274,168.361 400.5,167C 387.033,158.564 381.2,146.397 383,130.5C 383.465,129.069 384.299,127.903 385.5,127C 379.034,119.072 371.034,116.406 361.5,119C 369.701,108.359 378.701,107.692 388.5,117C 394.678,122.513 400.845,128.013 407,133.5C 408.31,132.87 409.144,131.87 409.5,130.5 Z"/></g>
<g><path style="opacity:1" fill="#f9f4f6" d="M 437.5,112.5 C 439.716,113.203 441.549,114.536 443,116.5C 447.149,124.705 448.483,133.372 447,142.5C 446.439,145.29 445.106,147.623 443,149.5C 442.857,145.381 442.19,141.381 441,137.5C 440.586,137.043 440.086,136.709 439.5,136.5C 438.833,137.5 438.167,138.5 437.5,139.5C 436.5,138.833 435.5,138.167 434.5,137.5C 433.682,140.107 433.182,142.774 433,145.5C 431.017,141.722 429.517,137.722 428.5,133.5C 432.847,127.143 435.847,120.143 437.5,112.5 Z"/></g>
<g><path style="opacity:1" fill="#b26145" d="M 411.5,127.5 C 410.833,128.5 410.167,129.5 409.5,130.5C 409.34,128.801 409.506,127.134 410,125.5C 410.717,126.044 411.217,126.711 411.5,127.5 Z"/></g>
<g><path style="opacity:1" fill="#f9f3f5" d="M 386.5,129.5 C 390.687,133.946 395.02,138.446 399.5,143C 402.226,144.688 405.059,146.188 408,147.5C 408.667,148.5 408.667,149.5 408,150.5C 406.667,149.167 405.333,147.833 404,146.5C 403.798,148.256 403.298,149.922 402.5,151.5C 400.833,149.833 399.833,150.167 399.5,152.5C 400.394,156.905 402.727,160.405 406.5,163C 403.407,164.827 400.407,164.494 397.5,162C 387.671,153.19 384.004,142.357 386.5,129.5 Z"/></g>
<g><path style="opacity:1" fill="#8e2c4b" d="M 411.5,182.5 C 416.015,183.812 420.682,183.812 425.5,182.5C 425.376,181.893 425.043,181.56 424.5,181.5C 418.183,179.195 415.85,174.862 417.5,168.5C 418.833,166.5 420.5,164.833 422.5,163.5C 424.239,162.566 425.905,162.566 427.5,163.5C 426.185,165.316 424.685,166.983 423,168.5C 422.412,173.568 424.745,175.568 430,174.5C 435.864,174.326 441.364,172.826 446.5,170C 450.695,165.715 450.362,162.048 445.5,159C 441.532,158.058 437.532,157.225 433.5,156.5C 440.057,154.859 446.39,155.359 452.5,158C 453.39,162.921 453.724,167.754 453.5,172.5C 458.052,169.733 460.885,165.733 462,160.5C 462.557,169.827 459.39,177.66 452.5,184C 449.298,185.483 445.964,185.817 442.5,185C 441.15,183.282 439.983,181.448 439,179.5C 439.671,188.163 435.671,192.163 427,191.5C 418.489,191.66 411.323,188.66 405.5,182.5C 407.401,181.769 409.401,181.769 411.5,182.5 Z"/></g>
<g><path style="opacity:1" fill="#93334a" d="M 420.5,162.5 C 419.11,163.899 418.11,165.566 417.5,167.5C 415.074,169.218 412.407,169.718 409.5,169C 413.005,164.999 417.005,161.499 421.5,158.5C 421.833,158.833 422.167,159.167 422.5,159.5C 421.807,160.518 421.141,161.518 420.5,162.5 Z"/></g>
<g><path style="opacity:1" fill="#cb8740" d="M 420.5,162.5 C 420.842,163.338 421.508,163.672 422.5,163.5C 420.5,164.833 418.833,166.5 417.5,168.5C 417.5,168.167 417.5,167.833 417.5,167.5C 418.11,165.566 419.11,163.899 420.5,162.5 Z"/></g>
<g><path style="opacity:1" fill="#90304f" d="M 464.5,170.5 C 467.452,171.359 469.285,173.359 470,176.5C 470.667,180.5 470.667,184.5 470,188.5C 468.959,186.415 467.459,184.748 465.5,183.5C 461.761,202.835 452.094,218.335 436.5,230C 423.998,237.936 411.998,237.269 400.5,228C 390.508,219.675 382.341,209.842 376,198.5C 374.511,194.167 376.011,191.833 380.5,191.5C 389.985,194.454 399.652,196.621 409.5,198C 434.678,202.078 453.011,192.911 464.5,170.5 Z"/></g>
<g><path style="opacity:1" fill="#b16045" d="M 424.5,181.5 C 425.043,181.56 425.376,181.893 425.5,182.5C 420.682,183.812 416.015,183.812 411.5,182.5C 416.032,182.818 420.366,182.485 424.5,181.5 Z"/></g>
<g><path style="opacity:1" fill="#91314a" d="M 388.5,186.5 C 385.833,187.167 383.167,187.833 380.5,188.5C 376.16,189.252 372.993,191.586 371,195.5C 370.667,199.833 370.333,204.167 370,208.5C 365.642,202.618 364.642,196.285 367,189.5C 369.455,186.123 372.789,184.457 377,184.5C 380.857,185.105 384.69,185.772 388.5,186.5 Z"/></g>
<g><path style="opacity:1" fill="#ca8440" d="M 388.5,186.5 C 389.043,186.56 389.376,186.893 389.5,187.5C 386.572,188.484 383.572,188.817 380.5,188.5C 383.167,187.833 385.833,187.167 388.5,186.5 Z"/></g>
<g><path style="opacity:1" fill="#f7f0f2" d="M 452.5,194.5 C 453.649,194.791 454.316,195.624 454.5,197C 452.671,202.491 450.171,207.657 447,212.5C 446.172,207.798 446.338,203.131 447.5,198.5C 449.786,197.867 451.452,196.534 452.5,194.5 Z"/></g>
<g><path style="opacity:1" fill="#b36344" d="M 242.5,197.5 C 241.508,197.328 240.842,197.662 240.5,198.5C 239.115,197.698 239.282,197.031 241,196.5C 241.765,196.57 242.265,196.903 242.5,197.5 Z"/></g>
<g><path style="opacity:1" fill="#e4ab3b" d="M 242.5,197.5 C 249.794,202.96 256.294,209.293 262,216.5C 262.667,218.5 262.667,220.5 262,222.5C 253.862,215.205 246.696,207.205 240.5,198.5C 240.842,197.662 241.508,197.328 242.5,197.5 Z"/></g>
<g><path style="opacity:1" fill="#f9f4f6" d="M 384.5,199.5 C 389.143,200.48 393.81,201.48 398.5,202.5C 399.663,208.137 399.83,213.804 399,219.5C 392.924,213.659 388.09,206.992 384.5,199.5 Z"/></g>
<g><path style="opacity:1" fill="#fbf9fa" d="M 440.5,201.5 C 441.816,204.087 442.483,207.087 442.5,210.5C 444.202,217.35 441.869,222.183 435.5,225C 432.95,226.442 430.284,227.608 427.5,228.5C 426.503,220.862 426.169,213.196 426.5,205.5C 431.519,205.038 436.186,203.704 440.5,201.5 Z"/></g>
<g><path style="opacity:1" fill="#fcfbfb" d="M 403.5,203.5 C 409.805,204.364 416.138,205.031 422.5,205.5C 422.5,213.167 422.5,220.833 422.5,228.5C 415.776,228.79 409.61,227.124 404,223.5C 403.5,216.842 403.334,210.175 403.5,203.5 Z"/></g>
<g><path style="opacity:1" fill="#90304b" d="M 449.5,227.5 C 451.344,228.204 451.844,229.537 451,231.5C 441.863,243.99 429.696,249.156 414.5,247C 410.717,246.391 409.05,244.224 409.5,240.5C 425.561,244.146 438.894,239.812 449.5,227.5 Z"/></g>
<g><path style="opacity:1" fill="#e8b03b" d="M 311.5,268.5 C 313.017,268.511 314.184,269.177 315,270.5C 355.302,313.137 395.969,355.47 437,397.5C 435.282,400.01 432.782,402.01 429.5,403.5C 388.63,360.131 348.296,316.298 308.5,272C 309.071,270.401 310.071,269.234 311.5,268.5 Z"/></g>
<g><path style="opacity:1" fill="#b87b91" d="M 452.5,289.5 C 452.56,288.957 452.893,288.624 453.5,288.5C 454.474,290.743 454.808,293.076 454.5,295.5C 453.833,293.5 453.167,291.5 452.5,289.5 Z"/></g>
<g><path style="opacity:1" fill="#e8b13a" d="M 585.5,492.5 C 585.5,493.167 585.167,493.5 584.5,493.5C 564.02,482.197 545.354,468.364 528.5,452C 526.945,450.711 525.279,450.044 523.5,450C 517.667,455.833 511.833,461.667 506,467.5C 505.333,468.5 505.333,469.5 506,470.5C 524.333,491.5 542.667,512.5 561,533.5C 562,532.167 563,530.833 564,529.5C 566.884,536.66 570.05,543.66 573.5,550.5C 573.167,550.833 572.833,551.167 572.5,551.5C 564.955,548.04 557.288,544.874 549.5,542C 550.665,540.916 551.998,540.083 553.5,539.5C 554.583,538.635 554.749,537.635 554,536.5C 534.29,516.292 514.79,495.958 495.5,475.5C 489.474,481.195 483.474,486.861 477.5,492.5C 489.432,508.682 499.599,526.016 508,544.5C 509.971,548.74 511.305,553.073 512,557.5C 497.743,533.202 480.243,511.368 459.5,492C 468.536,483.296 477.869,474.962 487.5,467C 479,457.833 470.5,448.667 462,439.5C 461.833,434.333 464.333,431.833 469.5,432C 478.348,441.014 487.348,449.848 496.5,458.5C 505.152,450.348 513.652,442.014 522,433.5C 543.036,453.372 564.203,473.039 585.5,492.5 Z"/></g>
<g><path style="opacity:1" fill="#b26045" d="M 585.5,492.5 C 586.627,493.122 587.627,493.955 588.5,495C 586.86,495.348 585.527,494.848 584.5,493.5C 585.167,493.5 585.5,493.167 585.5,492.5 Z"/></g>
</svg>
