<?xml version="1.0" encoding="UTF-8"?>
<!DOCTYPE svg PUBLIC "-//W3C//DTD SVG 1.1//EN" "http://www.w3.org/Graphics/SVG/1.1/DTD/svg11.dtd">
<svg xmlns="http://www.w3.org/2000/svg" version="1.1" width="2400px" height="2400px" style="shape-rendering:geometricPrecision; text-rendering:geometricPrecision; image-rendering:optimizeQuality; fill-rule:evenodd; clip-rule:evenodd" xmlns:xlink="http://www.w3.org/1999/xlink">
<g><path style="opacity:0.996" fill="#8b274b" d="M 1133.5,103.5 C 1177.96,111.308 1215.79,131.308 1247,163.5C 1275.02,197.223 1289.02,236.223 1289,280.5C 1311.26,298.095 1331.6,317.762 1350,339.5C 1367.71,329.096 1385.54,328.929 1403.5,339C 1409.5,343.824 1414.16,349.657 1417.5,356.5C 1401.3,357.43 1388.97,364.763 1380.5,378.5C 1414.11,427.649 1433.44,481.982 1438.5,541.5C 1473.6,545.131 1501.1,561.465 1521,590.5C 1533.67,611.163 1542,633.496 1546,657.5C 1552.9,700.927 1550.9,743.927 1540,786.5C 1533.71,805.408 1526.05,823.741 1517,841.5C 1514.93,846.815 1514.59,852.148 1516,857.5C 1534.03,869.841 1545.36,886.841 1550,908.5C 1558.32,944.012 1562.98,980.012 1564,1016.5C 1565.04,1077.49 1565.87,1138.49 1566.5,1199.5C 1593.35,1195.38 1620.02,1196.55 1646.5,1203C 1685.52,1213.89 1707.69,1239.39 1713,1279.5C 1713.2,1318.97 1715.53,1358.3 1720,1397.5C 1722.58,1418.84 1728.42,1439.17 1737.5,1458.5C 1742.04,1425.27 1747.87,1392.27 1755,1359.5C 1767.19,1306.14 1788.86,1257.14 1820,1212.5C 1831,1197.83 1842,1183.17 1853,1168.5C 1869.82,1145.88 1876.99,1120.55 1874.5,1092.5C 1882.33,1094.83 1889.33,1098.66 1895.5,1104C 1917.41,1123.3 1933.24,1146.8 1943,1174.5C 1955.44,1211.46 1961.27,1249.46 1960.5,1288.5C 1961.29,1331.88 1955.12,1374.21 1942,1415.5C 1937.3,1428.58 1931.64,1441.25 1925,1453.5C 1912.32,1472.84 1900.66,1492.84 1890,1513.5C 1881.94,1541.34 1873.28,1569.01 1864,1596.5C 1855.91,1620.34 1844.91,1642.68 1831,1663.5C 1823.28,1675.23 1813.11,1684.06 1800.5,1690C 1790.95,1692.96 1781.29,1693.29 1771.5,1691C 1754.99,1685.91 1739.32,1678.91 1724.5,1670C 1634.81,1610.52 1579.64,1527.69 1559,1421.5C 1542.51,1527.93 1530.01,1634.76 1521.5,1742C 1522.54,1744.72 1524.04,1747.22 1526,1749.5C 1545.99,1770.32 1566.15,1790.99 1586.5,1811.5C 1621.01,1777.82 1655.01,1743.65 1688.5,1709C 1790.43,1804.92 1893.1,1900.26 1996.5,1995C 1999.68,1998.02 2002.68,2001.18 2005.5,2004.5C 2002.59,2010 1999.42,2015.33 1996,2020.5C 1962.99,2009.07 1931.49,1994.57 1901.5,1977C 1829.79,1932.79 1763.13,1881.79 1701.5,1824C 1700.83,1823.33 1700.17,1823.33 1699.5,1824C 1681.83,1841.67 1664.17,1859.33 1646.5,1877C 1711.17,1952.33 1775.83,2027.67 1840.5,2103C 1841.33,2103.69 1842,2103.52 1842.5,2102.5C 1844.89,2096.71 1847.56,2091.05 1850.5,2085.5C 1851.33,2085.17 1852.17,2084.83 1853,2084.5C 1858.48,2085.35 1863.98,2086.02 1869.5,2086.5C 1872.35,2100.87 1876.51,2114.87 1882,2128.5C 1894.93,2161.2 1909.1,2193.36 1924.5,2225C 1920.34,2229.65 1915.68,2233.82 1910.5,2237.5C 1896.47,2229.1 1881.8,2221.93 1866.5,2216C 1829.49,2200.99 1792.16,2186.83 1754.5,2173.5C 1765.8,2166.18 1777.47,2159.34 1789.5,2153C 1791.26,2152.28 1792.09,2151.11 1792,2149.5C 1722.47,2076.97 1653.3,2004.14 1584.5,1931C 1583.09,1930.68 1581.76,1931.02 1580.5,1932C 1565.5,1945.67 1550.5,1959.33 1535.5,1973C 1585.58,2043.21 1627.42,2118.37 1661,2198.5C 1673.16,2229.15 1681.33,2260.82 1685.5,2293.5C 1679.66,2295.06 1673.82,2296.72 1668,2298.5C 1620.07,2213.96 1564.73,2134.62 1502,2060.5C 1473.78,2027.94 1443.28,1997.78 1410.5,1970C 1448.47,1935.7 1486.81,1901.7 1525.5,1868C 1503.6,1844.86 1481.93,1821.52 1460.5,1798C 1448.71,1800.66 1436.71,1802.16 1424.5,1802.5C 1407.41,1801.97 1391.41,1797.47 1376.5,1789C 1349.03,1774.53 1326.2,1754.7 1308,1729.5C 1298.99,1715.13 1293.99,1699.47 1293,1682.5C 1291.7,1681.91 1290.87,1680.91 1290.5,1679.5C 1290.95,1661.66 1296.28,1645.49 1306.5,1631C 1275.87,1597.37 1244.87,1564.03 1213.5,1531C 1210.08,1531.36 1206.74,1532.36 1203.5,1534C 1172.37,1549.06 1142.04,1565.39 1112.5,1583C 1056.77,1620.39 1000.77,1657.39 944.5,1694C 915.615,1711.77 884.948,1725.77 852.5,1736C 834.303,1740.95 815.803,1744.12 797,1745.5C 776.415,1744.98 759.415,1736.98 746,1721.5C 732.64,1705.12 722.64,1686.79 716,1666.5C 708.17,1643.02 702.503,1619.02 699,1594.5C 696.843,1574.75 694.176,1555.08 691,1535.5C 688.995,1528.47 684.495,1524.97 677.5,1525C 672.338,1526.83 667.672,1529.5 663.5,1533C 652.803,1543.36 642.47,1554.03 632.5,1565C 602.916,1590.26 571.916,1613.59 539.5,1635C 529.5,1643 519.5,1651 509.5,1659C 497.718,1669.41 490.218,1682.24 487,1697.5C 468.407,1673.31 457.907,1645.97 455.5,1615.5C 457.549,1583.85 466.383,1554.18 482,1526.5C 505.476,1485.99 534.643,1449.83 569.5,1418C 609.212,1381.96 652.545,1350.96 699.5,1325C 743.728,1302.04 771.895,1314.54 784,1362.5C 790.306,1389.7 795.973,1417.03 801,1444.5C 806.237,1473.56 816.57,1500.56 832,1525.5C 838.49,1534.66 846.324,1535.83 855.5,1529C 865.667,1521.5 874.5,1512.67 882,1502.5C 891.247,1489.67 900.247,1476.67 909,1463.5C 922.374,1441.25 935.874,1419.08 949.5,1397C 907.874,1355.39 860.207,1322.39 806.5,1298C 714.524,1264.12 625.858,1223.12 540.5,1175C 520.88,1163.87 502.213,1151.37 484.5,1137.5C 482.599,1149.78 481.099,1162.11 480,1174.5C 479.781,1175.94 479.281,1177.27 478.5,1178.5C 470.705,1171.54 464.205,1163.54 459,1154.5C 438.865,1117.77 424.865,1078.77 417,1037.5C 407.143,988.289 400.977,938.622 398.5,888.5C 401.263,888.744 403.429,890.077 405,892.5C 446.137,946.656 490.637,998.156 538.5,1047C 549.926,1057.87 562.26,1067.54 575.5,1076C 579.892,1078.41 584.558,1079.91 589.5,1080.5C 589.5,1081.5 589.5,1082.5 589.5,1083.5C 576.359,1086.82 563.359,1090.66 550.5,1095C 598.615,1135.25 652.282,1166.58 711.5,1189C 768.839,1207.34 825.839,1226.67 882.5,1247C 914.579,1259.04 945.579,1273.21 975.5,1289.5C 976.012,1284.45 976.512,1279.45 977,1274.5C 935.485,1230.62 894.318,1186.45 853.5,1142C 847.349,1144.16 841.015,1146.16 834.5,1148C 817.369,1151.04 800.703,1149.38 784.5,1143C 744.988,1126.49 714.488,1099.66 693,1062.5C 679.721,1038.93 670.054,1013.93 664,987.5C 660.339,966.874 657.006,946.208 654,925.5C 620.667,890.167 587.333,854.833 554,819.5C 545.166,809.34 541.833,797.673 544,784.5C 549.729,772.388 559.229,767.888 572.5,771C 581.352,773.76 589.352,778.093 596.5,784C 615.032,802.864 633.199,822.031 651,841.5C 653.295,818.566 654.962,795.566 656,772.5C 661.326,699.537 675.992,628.537 700,559.5C 703.906,550.682 708.573,542.348 714,534.5C 723.19,522.994 734.69,519.827 748.5,525C 755.34,528.25 761.673,532.25 767.5,537C 808.799,573.964 849.799,611.298 890.5,649C 915,672.167 938.833,696 962,720.5C 940.007,674.862 923.34,627.195 912,577.5C 905.103,544.528 901.769,511.194 902,477.5C 866.724,412.846 856.724,344.512 872,272.5C 885.871,223.697 914.038,185.697 956.5,158.5C 956.12,176.49 956.62,194.49 958,212.5C 958.81,234.225 963.81,254.892 973,274.5C 976.12,279.954 980.287,284.454 985.5,288C 1006.53,275.822 1028.53,265.155 1051.5,256C 1072.12,248.179 1093.45,244.179 1115.5,244C 1148.42,211.748 1157.59,173.581 1143,129.5C 1140.09,120.693 1136.92,112.027 1133.5,103.5 Z M 806.5,788.5 C 812.622,788.728 817.956,790.895 822.5,795C 852.773,826.716 878.273,861.883 899,900.5C 932.107,961.151 957.773,1024.82 976,1091.5C 983.77,1122.71 986.77,1154.37 985,1186.5C 954.863,1154.7 924.363,1123.2 893.5,1092C 904.864,1068.79 907.698,1044.62 902,1019.5C 888.919,988.086 866.753,965.586 835.5,952C 817.634,949.037 799.634,947.871 781.5,948.5C 782.954,908.793 785.121,869.126 788,829.5C 789.163,817.51 792.497,806.176 798,795.5C 800.464,792.519 803.297,790.186 806.5,788.5 Z M 1420.5,1453.5 C 1422.68,1487.37 1418.84,1520.71 1409,1553.5C 1405.55,1564.24 1399.72,1573.41 1391.5,1581C 1385.1,1582.92 1378.6,1585.42 1372,1588.5C 1343.53,1558.36 1314.7,1528.53 1285.5,1499C 1329.89,1481.71 1374.89,1466.54 1420.5,1453.5 Z"/></g>
<g><path style="opacity:1" fill="#ebb63a" d="M 1412.5,559.5 C 1412.17,567.196 1412.5,574.862 1413.5,582.5C 1414.11,582.376 1414.44,582.043 1414.5,581.5C 1462.07,572.866 1493.24,591.532 1508,637.5C 1511.49,649.277 1513.82,661.277 1515,673.5C 1517.8,718.282 1512.14,761.949 1498,804.5C 1469.98,885.283 1421.98,951.283 1354,1002.5C 1345.9,1017.93 1336.23,1032.26 1325,1045.5C 1326.65,1039.84 1328.65,1034.17 1331,1028.5C 1332.96,1020.96 1334.13,1013.29 1334.5,1005.5C 1332.5,1005.5 1330.5,1005.5 1328.5,1005.5C 1328.68,1010.81 1327.51,1015.81 1325,1020.5C 1319.67,1033.17 1314.33,1045.83 1309,1058.5C 1305.25,1065.67 1299.92,1071.34 1293,1075.5C 1298.11,1066.62 1302.77,1057.29 1307,1047.5C 1309.98,1039.06 1311.81,1030.39 1312.5,1021.5C 1313.48,1018.38 1313.81,1015.04 1313.5,1011.5C 1311.26,1011.21 1309.26,1011.54 1307.5,1012.5C 1306.68,1015.31 1306.18,1018.31 1306,1021.5C 1297,1041.17 1288,1060.83 1279,1080.5C 1274,1085.26 1268.17,1086.59 1261.5,1084.5C 1266.91,1077.67 1270.75,1070 1273,1061.5C 1276.28,1047.69 1278.12,1033.69 1278.5,1019.5C 1183.09,1030.34 1107.26,997.344 1051,920.5C 1024.64,882.383 1014.97,840.383 1022,794.5C 1031.51,750.99 1058.34,726.157 1102.5,720C 1068.66,705.161 1045.5,680.328 1033,645.5C 1020.1,607.194 1015.44,567.861 1019,527.5C 1024.63,481.027 1046.47,444.527 1084.5,418C 1120.95,397.168 1158.95,393.834 1198.5,408C 1204.43,410.935 1210.09,414.268 1215.5,418C 1224.96,425.796 1234.13,433.962 1243,442.5C 1240.37,432.651 1238.04,422.651 1236,412.5C 1234.76,400.94 1235.76,389.607 1239,378.5C 1248.55,360.003 1263.72,352.503 1284.5,356C 1298.9,359.038 1312.23,364.538 1324.5,372.5C 1320.98,379.559 1318.15,386.892 1316,394.5C 1310.41,417.643 1305.74,440.976 1302,464.5C 1300.57,471.292 1298.07,477.625 1294.5,483.5C 1286.24,485.537 1279.9,482.87 1275.5,475.5C 1274.01,490.198 1276.51,504.198 1283,517.5C 1288.19,524.04 1294.86,528.04 1303,529.5C 1305.52,555.415 1314.52,578.748 1330,599.5C 1336.47,606.975 1344.3,612.475 1353.5,616C 1368.81,618.791 1380.98,613.958 1390,601.5C 1399.02,586.092 1404.02,569.425 1405,551.5C 1406.38,520.651 1399.72,491.651 1385,464.5C 1377.39,452.551 1367.55,443.051 1355.5,436C 1358.08,426.587 1361.25,417.42 1365,408.5C 1388.85,441.688 1403.52,478.688 1409,519.5C 1411.16,532.751 1412.33,546.085 1412.5,559.5 Z"/></g>
<g><path style="opacity:1" fill="#8c284c" d="M 1093.5,445.5 C 1103.09,444.778 1112.42,445.945 1121.5,449C 1142.78,459.946 1162.11,473.613 1179.5,490C 1194.25,505.084 1209.25,519.751 1224.5,534C 1229.64,536.506 1233.81,535.339 1237,530.5C 1240.6,522.243 1242.27,513.577 1242,504.5C 1255.88,522.907 1262.21,543.573 1261,566.5C 1257.81,575.377 1251.98,581.877 1243.5,586C 1251.59,607.56 1252.42,629.393 1246,651.5C 1237.67,667.744 1224.51,673.911 1206.5,670C 1190.18,663.367 1176.35,653.2 1165,639.5C 1141.4,610.026 1129.73,576.359 1130,538.5C 1131.32,527.698 1135.49,518.198 1142.5,510C 1128.88,492.054 1111.22,480.054 1089.5,474C 1081.5,473.333 1073.5,473.333 1065.5,474C 1059.81,475.021 1054.48,476.854 1049.5,479.5C 1058.97,461.431 1073.64,450.098 1093.5,445.5 Z"/></g>
<g><path style="opacity:1" fill="#fdfcfd" d="M 1351.5,449.5 C 1361.71,454.207 1369.54,461.54 1375,471.5C 1393.12,505.115 1397.45,540.448 1388,577.5C 1385.06,588.756 1378.73,597.423 1369,603.5C 1368.5,603.333 1368,603.167 1367.5,603C 1377.27,581.793 1374.6,562.293 1359.5,544.5C 1356.51,550.963 1354.01,557.63 1352,564.5C 1348,559.167 1344,553.833 1340,548.5C 1339.33,547.167 1338.67,547.167 1338,548.5C 1336.69,551.73 1335.69,555.064 1335,558.5C 1334.18,568.293 1334.51,577.96 1336,587.5C 1323.79,569.637 1317.29,549.97 1316.5,528.5C 1324.63,523.525 1330.47,516.525 1334,507.5C 1340.95,488.489 1346.78,469.156 1351.5,449.5 Z"/></g>
<g><path style="opacity:1" fill="#fdfcfd" d="M 1150.5,519.5 C 1160.14,529.325 1168.97,539.991 1177,551.5C 1191.42,569.861 1209.75,582.195 1232,588.5C 1234.4,594.669 1235.73,601.002 1236,607.5C 1231.36,599.025 1224.86,592.358 1216.5,587.5C 1215.67,594.811 1215.17,602.144 1215,609.5C 1209.83,605.916 1204.5,602.583 1199,599.5C 1197.71,621.758 1206.54,638.591 1225.5,650C 1227.83,650.333 1230.17,650.667 1232.5,651C 1226.42,658.146 1218.75,660.48 1209.5,658C 1196.39,652.568 1185.22,644.401 1176,633.5C 1152.22,604.821 1141.22,571.821 1143,534.5C 1144.46,528.915 1146.96,523.915 1150.5,519.5 Z"/></g>
<g><path style="opacity:1" fill="#c37a42" d="M 1412.5,559.5 C 1413.17,566.833 1413.83,574.167 1414.5,581.5C 1414.44,582.043 1414.11,582.376 1413.5,582.5C 1412.5,574.862 1412.17,567.196 1412.5,559.5 Z"/></g>
<g><path style="opacity:1" fill="#8b284b" d="M 1450.5,640.5 C 1451.48,643.625 1451.81,646.958 1451.5,650.5C 1450.27,674.08 1443.77,696.08 1432,716.5C 1423.63,729.601 1412.13,738.768 1397.5,744C 1378.14,748.967 1365.98,741.8 1361,722.5C 1359,719.833 1357,719.833 1355,722.5C 1354.67,731.167 1354.33,739.833 1354,748.5C 1349.83,758.835 1342.33,765.335 1331.5,768C 1298.35,772.869 1268.02,765.869 1240.5,747C 1233.17,741 1226.5,734.333 1220.5,727C 1248.44,733.449 1276.78,735.116 1305.5,732C 1294.01,727.508 1284.18,720.675 1276,711.5C 1263.48,690.416 1267.31,672.916 1287.5,659C 1294.25,654.635 1301.59,652.969 1309.5,654C 1311.83,656.79 1311.66,659.624 1309,662.5C 1304.67,666.167 1300.33,669.833 1296,673.5C 1289.75,683.886 1291.92,691.72 1302.5,697C 1317.17,697.667 1331.83,697.667 1346.5,697C 1364.91,695.877 1380.41,688.71 1393,675.5C 1404.79,652.585 1397.96,638.752 1372.5,634C 1360.62,631.515 1348.62,629.848 1336.5,629C 1335.14,627.062 1335.47,625.396 1337.5,624C 1352.83,623.333 1368.17,623.333 1383.5,624C 1412.74,626.267 1423.91,641.767 1417,670.5C 1416.17,677.317 1414.34,683.817 1411.5,690C 1416.36,690.492 1420.69,689.158 1424.5,686C 1437.42,673.338 1446.08,658.171 1450.5,640.5 Z"/></g>
<g><path style="opacity:1" fill="#8c294b" d="M 1285.5,636.5 C 1287.83,636.5 1290.17,636.5 1292.5,636.5C 1292.5,638.5 1292.5,640.5 1292.5,642.5C 1289.9,642.549 1287.73,643.549 1286,645.5C 1281.2,655.616 1275.03,664.783 1267.5,673C 1258.86,679.08 1249.19,681.914 1238.5,681.5C 1238.5,679.5 1238.5,677.5 1238.5,675.5C 1242.23,675.424 1245.56,674.257 1248.5,672C 1254.43,666.076 1259.59,659.576 1264,652.5C 1267.5,649 1271,645.5 1274.5,642C 1278.26,640.121 1281.93,638.287 1285.5,636.5 Z"/></g>
<g><path style="opacity:1" fill="#bf7442" d="M 1451.5,650.5 C 1451.81,646.958 1451.48,643.625 1450.5,640.5C 1450.99,639.527 1451.49,638.527 1452,637.5C 1452.81,642.02 1452.65,646.354 1451.5,650.5 Z"/></g>
<g><path style="opacity:1" fill="#8b284c" d="M 1461.5,682.5 C 1464.65,681.959 1467.15,682.959 1469,685.5C 1482.95,706.62 1487.12,729.62 1481.5,754.5C 1477.7,747.744 1473.03,741.577 1467.5,736C 1465.29,733.654 1462.79,733.154 1460,734.5C 1457,767.843 1447.33,799.176 1431,828.5C 1413.01,861.827 1389.18,890.327 1359.5,914C 1309.24,951.037 1258.57,951.704 1207.5,916C 1186.11,900.281 1166.94,882.114 1150,861.5C 1138.27,847.707 1127.27,833.374 1117,818.5C 1109.4,807.969 1104.57,796.302 1102.5,783.5C 1102.38,776.9 1105.38,772.4 1111.5,770C 1120.86,768.222 1130.19,768.555 1139.5,771C 1195.52,790.544 1253.18,798.878 1312.5,796C 1368.63,787.203 1412.46,759.37 1444,712.5C 1448,704.5 1452,696.5 1456,688.5C 1457.36,685.977 1459.19,683.977 1461.5,682.5 Z"/></g>
<g><path style="opacity:1" fill="#8c284b" d="M 1095.5,741.5 C 1118.29,739.854 1140.29,743.187 1161.5,751.5C 1152.52,752.332 1143.52,752.832 1134.5,753C 1095.05,758.811 1077.88,781.645 1083,821.5C 1083.56,826.385 1084.4,831.218 1085.5,836C 1085.17,836.5 1084.83,837 1084.5,837.5C 1069.79,819.529 1062.95,798.862 1064,775.5C 1067.12,757.214 1077.62,745.88 1095.5,741.5 Z"/></g>
<g><path style="opacity:1" fill="#fdfcfd" d="M 1389.5,853.5 C 1388.5,835.341 1388.17,817.008 1388.5,798.5C 1397.86,793.317 1406.86,787.484 1415.5,781C 1418.91,779.76 1420.57,780.927 1420.5,784.5C 1414.77,809.62 1404.44,832.62 1389.5,853.5 Z"/></g>
<g><path style="opacity:1" fill="#eab43a" d="M 563.5,788.5 C 571.059,789.779 577.726,792.946 583.5,798C 606.365,821.197 628.865,844.697 651,868.5C 651.667,877.167 651.667,885.833 651,894.5C 623.699,864.865 596.033,835.531 568,806.5C 564.883,802.099 562.716,797.266 561.5,792C 561.862,790.566 562.528,789.399 563.5,788.5 Z"/></g>
<g><path style="opacity:1" fill="#fefdfd" d="M 1143.5,798.5 C 1146.85,798.335 1150.18,798.502 1153.5,799C 1168.37,804.874 1183.7,809.041 1199.5,811.5C 1199.67,834.836 1199.5,858.169 1199,881.5C 1180.57,861.938 1163.57,841.271 1148,819.5C 1144.69,814.554 1142.19,809.221 1140.5,803.5C 1140.76,801.308 1141.76,799.641 1143.5,798.5 Z"/></g>
<g><path style="opacity:1" fill="#d6b4c1" d="M 1388.5,798.5 C 1388.17,817.008 1388.5,835.341 1389.5,853.5C 1389.22,854.289 1388.72,854.956 1388,855.5C 1387.17,836.329 1387.34,817.329 1388.5,798.5 Z"/></g>
<g><path style="opacity:1" fill="#fefefe" d="M 1369.5,806.5 C 1370.5,806.5 1371.5,806.5 1372.5,806.5C 1371.85,828.898 1372.52,851.064 1374.5,873C 1357.28,895.275 1334.95,909.441 1307.5,915.5C 1307.5,884.833 1307.5,854.167 1307.5,823.5C 1329.28,821.556 1349.95,815.89 1369.5,806.5 Z"/></g>
<g><path style="opacity:1" fill="#dbbdc8" d="M 1217.5,815.5 C 1215.51,841.145 1214.84,867.145 1215.5,893.5C 1214.5,867.339 1214.17,841.005 1214.5,814.5C 1215.79,814.263 1216.79,814.596 1217.5,815.5 Z"/></g>
<g><path style="opacity:1" fill="#fefdfd" d="M 1217.5,815.5 C 1242.34,819.584 1267.34,822.251 1292.5,823.5C 1292.5,854.5 1292.5,885.5 1292.5,916.5C 1268.37,916.966 1245.7,911.466 1224.5,900C 1221.08,898.301 1218.08,896.135 1215.5,893.5C 1214.84,867.145 1215.51,841.145 1217.5,815.5 Z"/></g>
<g><path style="opacity:1" fill="#8c284b" d="M 1400.5,913.5 C 1408,912.166 1410.83,915.166 1409,922.5C 1402.44,935.074 1393.6,945.908 1382.5,955C 1359.3,974.101 1332.96,987.101 1303.5,994C 1283.25,996.75 1264.25,993.083 1246.5,983C 1239.43,979.378 1236.93,973.878 1239,966.5C 1240.91,963.586 1243.58,961.919 1247,961.5C 1275.2,972.236 1303.37,972.069 1331.5,961C 1357.96,950.011 1380.96,934.178 1400.5,913.5 Z"/></g>
<g><path style="opacity:1" fill="#b96b43" d="M 1307.5,1012.5 C 1309.26,1011.54 1311.26,1011.21 1313.5,1011.5C 1313.81,1015.04 1313.48,1018.38 1312.5,1021.5C 1312.5,1018.5 1312.5,1015.5 1312.5,1012.5C 1310.83,1012.5 1309.17,1012.5 1307.5,1012.5 Z"/></g>
<g><path style="opacity:1" fill="#ebb53a" d="M 849.5,1076.5 C 852.785,1076.27 855.285,1077.6 857,1080.5C 1022.32,1252.65 1187.82,1424.65 1353.5,1596.5C 1341.61,1602.36 1330.44,1609.36 1320,1617.5C 1157.97,1443.13 996.299,1268.47 835,1093.5C 835.287,1088.6 837.454,1084.6 841.5,1081.5C 844.231,1079.81 846.898,1078.14 849.5,1076.5 Z"/></g>
<g><path style="opacity:1" fill="#fdfbfc" d="M 1415.5,1155.5 C 1416.29,1156.61 1416.79,1157.94 1417,1159.5C 1417.81,1179.17 1418.64,1198.84 1419.5,1218.5C 1404.67,1223.05 1389.84,1227.72 1375,1232.5C 1374.23,1232.36 1373.56,1232.02 1373,1231.5C 1372.22,1225.35 1372.88,1219.35 1375,1213.5C 1381.26,1197.93 1389.92,1183.93 1401,1171.5C 1406.41,1166.59 1411.24,1161.26 1415.5,1155.5 Z"/></g>
<g><path style="opacity:1" fill="#ebb53a" d="M 1473.5,1725.5 C 1474.87,1725.34 1476.21,1725.51 1477.5,1726C 1513.68,1763.68 1550.01,1801.18 1586.5,1838.5C 1621.01,1804.82 1655.01,1770.65 1688.5,1736C 1689.17,1735.33 1689.83,1735.33 1690.5,1736C 1777.59,1818.7 1865.26,1900.7 1953.5,1982C 1934.56,1973.69 1916.22,1964.03 1898.5,1953C 1827.16,1907.69 1761,1855.53 1700,1796.5C 1673.5,1823 1647,1849.5 1620.5,1876C 1695.3,1963.97 1770.63,2051.47 1846.5,2138.5C 1850.27,2131.3 1853.77,2123.96 1857,2116.5C 1869.16,2147.48 1881.83,2178.14 1895,2208.5C 1887.6,2204.81 1880.1,2201.31 1872.5,2198C 1848.16,2188.49 1823.82,2178.99 1799.5,2169.5C 1807.33,2164.42 1815.33,2159.58 1823.5,2155C 1743.67,2071.17 1663.83,1987.33 1584,1903.5C 1559.41,1925.55 1534.91,1947.72 1510.5,1970C 1561.45,2040.69 1604.62,2116.19 1640,2196.5C 1645.86,2210.19 1650.53,2224.19 1654,2238.5C 1608.56,2163.38 1556.56,2093.05 1498,2027.5C 1479.29,2007.29 1459.79,1987.96 1439.5,1969.5C 1477.14,1936.2 1514.81,1902.86 1552.5,1869.5C 1517.52,1831.35 1482.35,1793.35 1447,1755.5C 1447.02,1753.08 1447.69,1750.75 1449,1748.5C 1454.79,1738.2 1462.96,1730.54 1473.5,1725.5 Z"/></g>
</svg>
