<?xml version="1.0" encoding="UTF-8"?>
<!DOCTYPE svg PUBLIC "-//W3C//DTD SVG 1.1//EN" "http://www.w3.org/Graphics/SVG/1.1/DTD/svg11.dtd">
<svg xmlns="http://www.w3.org/2000/svg" version="1.1" width="512px" height="512px" style="shape-rendering:geometricPrecision; text-rendering:geometricPrecision; image-rendering:optimizeQuality; fill-rule:evenodd; clip-rule:evenodd" xmlns:xlink="http://www.w3.org/1999/xlink">
<g><path style="opacity:0.992" fill="#000000" d="M 236.5,-0.5 C 249.167,-0.5 261.833,-0.5 274.5,-0.5C 339.462,9.24688 385.962,43.9135 414,103.5C 426.194,135.584 429.528,168.584 424,202.5C 422.343,211.803 419.676,220.803 416,229.5C 374.53,318.44 332.53,407.106 290,495.5C 283.093,503.528 274.593,508.862 264.5,511.5C 258.5,511.5 252.5,511.5 246.5,511.5C 232.333,508.177 222.167,499.844 216,486.5C 175.94,400.713 135.606,315.046 95,229.5C 87.5091,210.735 84.0091,191.235 84.5,171C 86.5644,102.987 116.898,51.9872 175.5,18C 194.876,8.26013 215.209,2.09346 236.5,-0.5 Z M 250.5,84.5 C 292.814,84.6812 321.648,104.348 337,143.5C 347.969,186.954 334.802,220.787 297.5,245C 263.256,261.475 230.923,258.475 200.5,236C 173.111,210.627 164.278,179.794 174,143.5C 187.492,108.166 212.992,88.4992 250.5,84.5 Z"/></g>
</svg>
