<?xml version="1.0" encoding="UTF-8"?>
<!DOCTYPE svg PUBLIC "-//W3C//DTD SVG 1.1//EN" "http://www.w3.org/Graphics/SVG/1.1/DTD/svg11.dtd">
<svg xmlns="http://www.w3.org/2000/svg" version="1.1" width="674px" height="899px" style="shape-rendering:geometricPrecision; text-rendering:geometricPrecision; image-rendering:optimizeQuality; fill-rule:evenodd; clip-rule:evenodd" xmlns:xlink="http://www.w3.org/1999/xlink">
<g><path style="opacity:1" fill="#fec526" d="M 300.5,-0.5 C 324.5,-0.5 348.5,-0.5 372.5,-0.5C 487.604,15.1855 574.437,72.8522 633,172.5C 654.68,212.702 668.18,255.368 673.5,300.5C 673.5,326.167 673.5,351.833 673.5,377.5C 668.482,419.722 655.315,459.389 634,496.5C 609.08,539.354 582.413,581.02 554,621.5C 492.944,708.224 432.277,795.224 372,882.5C 366.033,890.212 358.533,895.546 349.5,898.5C 340.833,898.5 332.167,898.5 323.5,898.5C 314.467,895.546 306.967,890.212 301,882.5C 240.723,795.224 180.056,708.224 119,621.5C 91.0893,581.574 64.756,540.574 40,498.5C 18.1569,460.804 4.65691,420.47 -0.5,377.5C -0.5,351.833 -0.5,326.167 -0.5,300.5C 14.8591,186.213 71.8591,99.7127 170.5,41C 211.291,18.7904 254.624,4.95704 300.5,-0.5 Z"/></g>
<g><path style="opacity:1" fill="#000000" d="M 230.5,148.5 C 281.515,148.083 332.515,148.583 383.5,150C 425.666,155.521 455.166,177.688 472,216.5C 483.091,249.659 486.424,283.659 482,318.5C 477.975,359.083 458.475,389.583 423.5,410C 406.157,416.893 388.157,421.227 369.5,423C 323.168,423.5 276.835,423.667 230.5,423.5C 230.5,331.833 230.5,240.167 230.5,148.5 Z"/></g>
<g><path style="opacity:1" fill="#af881a" d="M 345.5,211.5 C 335.833,211.5 326.167,211.5 316.5,211.5C 316.5,261.167 316.5,310.833 316.5,360.5C 327.5,360.5 338.5,360.5 349.5,360.5C 338.346,361.495 327.012,361.828 315.5,361.5C 315.5,311.167 315.5,260.833 315.5,210.5C 325.681,210.173 335.681,210.506 345.5,211.5 Z"/></g>
<g><path style="opacity:1" fill="#fec526" d="M 345.5,211.5 C 371.8,211.655 388.3,224.322 395,249.5C 399.57,275.147 399.57,300.814 395,326.5C 388.657,349.593 373.49,360.926 349.5,360.5C 338.5,360.5 327.5,360.5 316.5,360.5C 316.5,310.833 316.5,261.167 316.5,211.5C 326.167,211.5 335.833,211.5 345.5,211.5 Z"/></g>
</svg>
