<?xml version="1.0" encoding="UTF-8"?>
<!DOCTYPE svg PUBLIC "-//W3C//DTD SVG 1.1//EN" "http://www.w3.org/Graphics/SVG/1.1/DTD/svg11.dtd">
<svg xmlns="http://www.w3.org/2000/svg" version="1.1" width="674px" height="899px" style="shape-rendering:geometricPrecision; text-rendering:geometricPrecision; image-rendering:optimizeQuality; fill-rule:evenodd; clip-rule:evenodd" xmlns:xlink="http://www.w3.org/1999/xlink">
<g><path style="opacity:1" fill="#fec526" d="M 300.5,-0.5 C 324.5,-0.5 348.5,-0.5 372.5,-0.5C 487.604,15.1855 574.437,72.8522 633,172.5C 654.68,212.702 668.18,255.368 673.5,300.5C 673.5,326.167 673.5,351.833 673.5,377.5C 668.482,419.722 655.315,459.389 634,496.5C 609.08,539.354 582.413,581.02 554,621.5C 492.944,708.224 432.277,795.224 372,882.5C 366.033,890.212 358.533,895.546 349.5,898.5C 340.833,898.5 332.167,898.5 323.5,898.5C 314.467,895.546 306.967,890.212 301,882.5C 240.723,795.224 180.056,708.224 119,621.5C 91.0893,581.574 64.756,540.574 40,498.5C 18.1569,460.804 4.65691,420.47 -0.5,377.5C -0.5,351.833 -0.5,326.167 -0.5,300.5C 14.8591,186.213 71.8591,99.7127 170.5,41C 211.291,18.7904 254.624,4.95704 300.5,-0.5 Z"/></g>
<g><path style="opacity:1" fill="#000000" d="M 240.5,135.5 C 294.855,135.044 349.188,135.544 403.5,137C 444.528,143.027 467.694,166.527 473,207.5C 475.11,230.178 470.777,251.511 460,271.5C 451.475,283.851 440.309,293.018 426.5,299C 416.76,302.602 406.76,305.269 396.5,307C 372.857,308.364 349.19,308.864 325.5,308.5C 325.5,342.5 325.5,376.5 325.5,410.5C 297.167,410.5 268.833,410.5 240.5,410.5C 240.5,318.833 240.5,227.167 240.5,135.5 Z"/></g>
<g><path style="opacity:1" fill="#fdc426" d="M 325.5,191.5 C 337.505,191.333 349.505,191.5 361.5,192C 387.526,197.21 396.026,212.377 387,237.5C 380.021,247.063 370.521,251.896 358.5,252C 347.505,252.5 336.505,252.667 325.5,252.5C 325.5,232.167 325.5,211.833 325.5,191.5 Z"/></g>
</svg>
